<?xml version="1.0" encoding="UTF-8"?>
<svg xmlns="http://www.w3.org/2000/svg" xmlns:xlink="http://www.w3.org/1999/xlink" width="473.59pt" height="434.11pt" viewBox="0 0 473.59 434.11" version="1.1">
<defs>
<clipPath id="clip1">
  <path d="M 375 308 L 473.589844 308 L 473.589844 424 L 375 424 Z M 375 308 "/>
</clipPath>
<clipPath id="clip2">
  <path d="M 26 0 L 462 0 L 462 434.109375 L 26 434.109375 Z M 26 0 "/>
</clipPath>
</defs>
<g id="surface1">
<path style=" stroke:none;fill-rule:nonzero;fill:#76dfe2;fill-opacity:1;" d="M 244.054688 161.15625 C 213.183594 161.15625 188.15625 186.183594 188.15625 217.054688 C 188.15625 247.925781 213.183594 272.953125 244.054688 272.953125 C 274.925781 272.953125 299.949219 247.925781 299.949219 217.054688 C 299.949219 186.183594 274.925781 161.15625 244.054688 161.15625 "/>
<path style=" stroke:none;fill-rule:nonzero;fill:#76dfe2;fill-opacity:1;" d="M 49.636719 85.976563 C 58.03125 73.550781 67.664063 61.875 78.269531 51.273438 L 67.902344 40.90625 C 56.636719 52.167969 46.40625 64.570313 37.488281 77.769531 C 28.492188 91.089844 20.765625 105.324219 14.519531 120.085938 C 8.15625 135.132813 3.269531 150.867188 0 166.859375 L 14.363281 169.792969 C 17.441406 154.757813 22.035156 139.949219 28.023438 125.796875 C 33.898438 111.90625 41.171875 98.507813 49.636719 85.976563 "/>
<g clip-path="url(#clip1)" clip-rule="nonzero">
<path style=" stroke:none;fill-rule:nonzero;fill:#76dfe2;fill-opacity:1;" d="M 460.085938 308.3125 C 454.210938 322.203125 446.9375 335.601563 438.46875 348.136719 C 430.082031 360.546875 420.449219 372.226563 409.835938 382.839844 C 399.21875 393.453125 387.542969 403.085938 375.132813 411.46875 L 383.339844 423.617188 C 396.523438 414.71875 408.925781 404.484375 420.203125 393.203125 C 431.476563 381.933594 441.710938 369.527344 450.617188 356.34375 C 459.613281 343.027344 467.34375 328.785156 473.589844 314.027344 L 460.085938 308.3125 "/>
</g>
<g clip-path="url(#clip2)" clip-rule="nonzero">
<path style=" stroke:none;fill-rule:nonzero;fill:#76dfe2;fill-opacity:1;" d="M 244.054688 408.453125 C 138.515625 408.453125 52.65625 322.589844 52.65625 217.054688 C 52.65625 111.515625 138.515625 25.65625 244.054688 25.65625 C 349.589844 25.65625 435.453125 111.515625 435.453125 217.054688 C 435.453125 322.589844 349.589844 408.453125 244.054688 408.453125 Z M 461.109375 217.054688 C 461.109375 97.371094 363.738281 -0.00390625 244.054688 -0.00390625 C 124.367188 -0.00390625 26.996094 97.371094 26.996094 217.054688 C 26.996094 336.738281 124.367188 434.109375 244.054688 434.109375 C 363.738281 434.109375 461.109375 336.738281 461.109375 217.054688 "/>
</g>
<path style=" stroke:none;fill-rule:nonzero;fill:#76dfe2;fill-opacity:1;" d="M 83.425781 284.914063 C 92.207031 305.671875 104.773438 324.316406 120.785156 340.324219 L 131.152344 329.957031 C 116.484375 315.289063 104.972656 298.214844 96.933594 279.199219 L 83.425781 284.914063 "/>
<path style=" stroke:none;fill-rule:nonzero;fill:#76dfe2;fill-opacity:1;" d="M 244.054688 57.386719 C 265.609375 57.386719 286.519531 61.605469 306.199219 69.933594 C 325.214844 77.976563 342.289063 89.488281 356.957031 104.152344 L 367.320313 93.785156 C 351.3125 77.777344 332.671875 65.210938 311.914063 56.429688 C 290.414063 47.335938 267.582031 42.726563 244.054688 42.726563 C 220.523438 42.726563 197.695313 47.335938 176.191406 56.429688 L 181.90625 69.933594 C 201.589844 61.605469 222.5 57.386719 244.054688 57.386719 "/>
<path style=" stroke:none;fill-rule:nonzero;fill:#76dfe2;fill-opacity:1;" d="M 244.054688 140.503906 C 283.789063 140.503906 316.53125 170.941406 320.234375 209.722656 L 390.0625 209.722656 C 386.230469 132.503906 322.207031 70.859375 244.054688 70.859375 C 165.898438 70.859375 101.878906 132.503906 98.042969 209.722656 L 167.871094 209.722656 C 171.578125 170.941406 204.316406 140.503906 244.054688 140.503906 "/>
<path style=" stroke:none;fill-rule:nonzero;fill:#76dfe2;fill-opacity:1;" d="M 244.054688 293.609375 C 204.316406 293.609375 171.574219 263.167969 167.871094 224.382813 L 98.042969 224.382813 C 101.875 301.605469 165.898438 363.25 244.054688 363.25 C 322.207031 363.25 386.230469 301.605469 390.0625 224.382813 L 320.234375 224.382813 C 316.53125 263.167969 283.789063 293.609375 244.054688 293.609375 "/>
</g>
</svg>
